# xmcd
#
# Track frame offsets: 
#        150
#        23810
#        51373
#        61657
#        74846
#        93500
#        108761
#        120330
#        138649
#        152976
#        166175
#        179967
#        200089
#
# Disc length: 2872 seconds
#
# Revision: 0
# Processed by: cddbd v1.5.2PL0 Copyright (c) Steve Scherf et al.
# Submitted via: ExactAudioCopy v0.99pb5
#
DISCID=bf0b360d
DTITLE=Albie Donnelly's Supercharge - The Thrill has not been gone
DYEAR=2010
DGENRE=Blues
TTITLE0=When u get back
TTITLE1=Wysiwyg
TTITLE2=Fool that i am
TTITLE3=Bad time
TTITLE4=Only you
TTITLE5=Give it the nasty
TTITLE6=I need you tonight
TTITLE7=Them changes
TTITLE8=Naima
TTITLE9=Get up and dance
TTITLE10=Dont let go
TTITLE11=After the show
TTITLE12=Play some fire
EXTD=
EXTT0=
EXTT1=
EXTT2=
EXTT3=
EXTT4=
EXTT5=
EXTT6=
EXTT7=
EXTT8=
EXTT9=
EXTT10=
EXTT11=
EXTT12=
PLAYORDER=
